<?xml version="1.0" encoding="UTF-8"?>
<svg width="294px" height="90px" viewBox="0 0 294 90" version="1.1" xmlns="http://www.w3.org/2000/svg" xmlns:xlink="http://www.w3.org/1999/xlink">
    <!-- Generator: Sketch 60 (88103) - https://sketch.com -->
    <title>Works with</title>
    <desc>Created with Sketch.</desc>
    <g id="Page-1" stroke="none" stroke-width="1" fill="none" fill-rule="evenodd">
        <g id="iPhone-8" transform="translate(-13.000000, -268.000000)">
            <g id="Works-with" transform="translate(13.000000, 268.000000)">
                <rect id="Rectangle" stroke="#CFCFCF" fill="#FFFFFF" x="0.5" y="0.5" width="293" height="89" rx="12"></rect>
                <text id="works-with-MQTT-Homi" font-family="ProductSans-Regular, Product Sans" font-size="19" font-weight="normal" line-spacing="36" letter-spacing="0.2" fill="#7B7B7B">
                    <tspan x="104.28" y="22">works with</tspan>
                    <tspan x="99" y="58" font-family="ProductSans-Medium, Product Sans Medium" font-size="30" letter-spacing="0.315789474">MQTT Homie</tspan>
                </text>
                <g id="Homie-logo" transform="translate(3.000000, 0.000000)">
                    <path d="M50.3787065,11.4452482 L72.5715307,24.2582812 C75.1923398,25.7714061 76.8068248,28.5677761 76.8068248,31.5940258 L76.8068248,57.2200918 C76.8068248,60.2463415 75.1923398,63.0427116 72.5715307,64.5558364 L50.3787065,77.3688694 C47.7578974,78.8819943 44.5289274,78.8819943 41.9081183,77.3688694 L19.7152941,64.5558364 C17.094485,63.0427116 15.48,60.2463415 15.48,57.2200918 L15.48,31.5940258 C15.48,28.5677761 17.094485,25.7714061 19.7152941,24.2582812 L41.9081183,11.4452482 C44.5289274,9.93212335 47.7578974,9.93212335 50.3787065,11.4452482 Z" id="Polygon" fill="#E74C3C" transform="translate(46.143412, 44.407059) rotate(-300.000000) translate(-46.143412, -44.407059) "></path>
                    <path d="M40.0361183,62.9830588 C40.7476477,62.9830588 41.2220006,62.7261176 41.4591771,62.2122353 C41.6963536,61.6983529 41.8940006,61.1647059 42.0521183,60.6112941 C42.1707065,59.9392941 42.3980006,59.0795294 42.7340006,58.032 C43.0700006,56.9844706 43.4751771,55.9270588 43.9495301,54.8597647 C44.423883,53.7924706 44.9476477,52.824 45.5208242,51.9543529 C46.0940006,51.0847059 46.6968242,50.5115294 47.3292948,50.2348235 C47.6850595,50.9463529 47.9222359,51.7962353 48.0408242,52.7844706 C48.1594124,53.7727059 48.3471771,54.7115294 48.6041183,55.6009412 C48.8610595,56.4903529 49.2761183,57.2414118 49.8492948,57.8541176 C50.4224712,58.4668235 51.3415301,58.7731765 52.6064712,58.7731765 C53.3180006,58.7731765 54.0987065,58.5458824 54.9485889,58.0912941 C55.7984712,57.6367059 56.5791771,57.0536471 57.2907065,56.3421176 C58.0022359,55.6305882 58.6050595,54.8597647 59.0991771,54.0296471 C59.5932948,53.1995294 59.8403536,52.4287059 59.8403536,51.7171765 C59.8403536,51.3614118 59.7316477,51.0254118 59.5142359,50.7091765 C59.2968242,50.3929412 58.9707065,50.2348235 58.535883,50.2348235 C58.0615301,50.2348235 57.6662359,50.5214118 57.3500006,51.0945882 C57.0337654,51.6677647 56.6977654,52.2903529 56.3420006,52.9623529 C55.9862359,53.6343529 55.5415301,54.2569412 55.007883,54.8301176 C54.4742359,55.4032941 53.7725889,55.6898824 52.9029418,55.6898824 C52.3890595,55.6898824 52.0234124,55.4724706 51.8060006,55.0376471 C51.5885889,54.6028235 51.4205889,54.0691765 51.3020006,53.4367059 C51.1834124,52.8042353 51.0747065,52.1025882 50.975883,51.3317647 C50.8770595,50.5609412 50.7189418,49.8592941 50.5015301,49.2268235 C50.2841183,48.5943529 49.9481183,48.0607059 49.4935301,47.6258824 C49.0389418,47.1910588 48.4163536,46.9736471 47.6257654,46.9736471 C47.111883,46.9736471 46.5881183,47.1712941 46.0544712,47.5665882 C45.5208242,47.9618824 45.0168242,48.4263529 44.5424712,48.96 C44.0681183,49.4936471 43.6332948,50.0470588 43.2380006,50.6202353 C42.8427065,51.1934118 42.5264712,51.6776471 42.2892948,52.0729412 L42.5264712,48.8710588 C43.6728242,47.6851765 44.759883,46.3807059 45.7876477,44.9576471 C46.8154124,43.5345882 47.7147065,42.0324706 48.4855301,40.4512941 C49.2563536,38.8701176 49.8690595,37.2395294 50.3236477,35.5595294 C50.7782359,33.8795294 51.0055301,32.1896471 51.0055301,30.4898824 C51.0055301,30.0155294 50.975883,29.5016471 50.9165889,28.9482353 C50.8572948,28.3948235 50.7189418,27.8809412 50.5015301,27.4065882 C50.2841183,26.9322353 49.9876477,26.5468235 49.6121183,26.2503529 C49.2365889,25.9538824 48.7325889,25.8056471 48.1001183,25.8056471 C46.8747065,25.8056471 45.8074124,26.3590588 44.8982359,27.4658824 C43.9890595,28.5727059 43.2083536,29.9957647 42.5561183,31.7350588 C41.903883,33.4743529 41.3702359,35.4112941 40.9551771,37.5458824 C40.5401183,39.6804706 40.2041183,41.7656471 39.9471771,43.8014118 C39.6902359,45.8371765 39.5123536,47.7148235 39.4135301,49.4343529 C39.3147065,51.1538824 39.2652948,52.4682353 39.2652948,53.3774118 C39.2652948,54.6818824 39.2356477,55.9665882 39.1763536,57.2315294 C39.1170595,58.4964706 38.9490595,59.7614118 38.6723536,61.0263529 C38.6328242,61.1054118 38.6130595,61.2437647 38.6130595,61.4414118 C38.6130595,61.8762353 38.7415301,62.2418824 38.9984712,62.5383529 C39.2554124,62.8348235 39.6012948,62.9830588 40.0361183,62.9830588 Z M42.6450595,44.9576471 C42.7636477,44.0089412 42.9711771,42.7637647 43.2676477,41.2221176 C43.5641183,39.6804706 43.9297654,38.1091765 44.3645889,36.5082353 C44.7994124,34.9072941 45.2935301,33.4051765 45.8469418,32.0018824 C46.4003536,30.5985882 47.0130595,29.6004706 47.6850595,29.0075294 C47.8431771,29.3632941 47.9420006,29.7388235 47.9815301,30.1341176 C48.0210595,30.5294118 48.0408242,30.9247059 48.0408242,31.32 C48.0408242,32.5058824 47.8827065,33.7115294 47.5664712,34.9369412 C47.2502359,36.1623529 46.8450595,37.368 46.3509418,38.5538824 C45.8568242,39.7397647 45.2836477,40.8762353 44.6314124,41.9632941 C43.9791771,43.0503529 43.3170595,44.0484706 42.6450595,44.9576471 Z" id="h" fill="#FFFFFF" fill-rule="nonzero"></path>
                    <path d="M54.8979348,29.1030776 C55.2408242,29.1030776 55.5240806,28.9651765 55.7477042,28.6893741 C55.9713277,28.4135718 56.0831395,28.11168 56.0831395,27.7836988 C56.0831395,27.5600753 56.0197795,27.3476329 55.8930595,27.1463718 C55.7663395,26.9451106 55.5762595,26.84448 55.3228195,26.84448 C55.1290124,26.84448 54.9575677,26.8966588 54.8084854,27.0010165 C54.659403,27.1053741 54.5364101,27.2358212 54.4395065,27.3923576 C54.342603,27.5488941 54.2717889,27.7203388 54.2270642,27.9066918 C54.1823395,28.0930447 54.1599771,28.2682165 54.1599771,28.4322071 C54.1599771,28.6409224 54.2307912,28.8049129 54.3724195,28.9241788 C54.5140477,29.0434447 54.6892195,29.1030776 54.8979348,29.1030776 Z M54.9873842,35.6105224 C55.4793559,35.6105224 55.9415112,35.4539859 56.3738501,35.1409129 C56.5378406,35.0067388 56.7391018,34.8241129 56.9776336,34.5930353 C57.2161654,34.3619576 57.4435159,34.1085176 57.6596854,33.8327153 C57.8758548,33.5569129 58.0584806,33.2811106 58.207563,33.0053082 C58.3566454,32.7295059 58.4311865,32.4797929 58.4311865,32.2561694 C58.4311865,32.1219953 58.3864618,32.0101835 58.2970124,31.9207341 C58.207563,31.8312847 58.0957512,31.78656 57.9615771,31.78656 C57.8572195,31.78656 57.764043,31.8201035 57.6820477,31.8871906 C57.6000524,31.9542776 57.5292383,32.0250918 57.4696054,32.0996329 C57.3801559,32.2636235 57.2534359,32.4797929 57.0894454,32.7481412 C56.9254548,33.0164894 56.7428289,33.2773835 56.5415677,33.5308235 C56.3403065,33.7842635 56.1278642,34.00416 55.9042406,34.1905129 C55.6806171,34.3768659 55.4569936,34.4700424 55.2333701,34.4700424 C55.0991959,34.4700424 54.9911112,34.4364988 54.9091159,34.3694118 C54.8271206,34.3023247 54.7712148,34.2203294 54.7413983,34.1234259 C54.7115818,34.0265224 54.6929465,33.9184376 54.6854924,33.7991718 C54.6780383,33.6799059 54.6743112,33.5680941 54.6743112,33.4637365 C54.6743112,33.2252047 54.6966736,32.9754918 54.7413983,32.7145976 C54.786123,32.4537035 54.8345748,32.2002635 54.8867536,31.9542776 C54.9389324,31.7082918 54.9873842,31.4772141 55.0321089,31.2610447 C55.0768336,31.0448753 55.0991959,30.8547953 55.0991959,30.6908047 C55.0991959,30.5268141 55.0507442,30.3889129 54.9538406,30.2771012 C54.8569371,30.1652894 54.7264901,30.1093835 54.5624995,30.1093835 C54.3090595,30.1093835 54.1115254,30.2547388 53.9698971,30.5454494 C53.8282689,30.83616 53.7201842,31.1715953 53.645643,31.5517553 C53.5711018,31.9319153 53.5263771,32.3120753 53.5114689,32.6922353 C53.4965606,33.0723953 53.4891065,33.3519247 53.4891065,33.5308235 C53.4891065,33.7842635 53.5114689,34.0339765 53.5561936,34.2799624 C53.6009183,34.5259482 53.6791865,34.7495718 53.7909983,34.9508329 C53.9028101,35.1520941 54.0556195,35.3123576 54.2494265,35.4316235 C54.4432336,35.5508894 54.6892195,35.6105224 54.9873842,35.6105224 Z M60.0062701,35.1409129 C60.3789759,35.1409129 60.7479548,35.0626447 61.1132065,34.9061082 C61.4784583,34.7495718 61.8250748,34.5483106 62.1530559,34.3023247 C62.4810371,34.0563388 62.7754748,33.7730824 63.0363689,33.4525553 C63.297263,33.1320282 63.5097053,32.8152282 63.6736959,32.5021553 C63.7184206,32.4425224 63.740783,32.3605271 63.740783,32.2561694 C63.740783,32.1219953 63.6960583,32.0064565 63.6066089,31.9095529 C63.5171595,31.8126494 63.4053477,31.7641976 63.2711736,31.7641976 C63.1519077,31.7641976 63.0736395,31.7828329 63.0363689,31.8201035 C62.9990983,31.8573741 62.9431924,31.9207341 62.8686512,32.0101835 C62.7046606,32.2338071 62.5294889,32.4611576 62.3431359,32.6922353 C62.156783,32.9233129 61.9517948,33.1320282 61.7281712,33.3183812 C61.5045477,33.5047341 61.2622889,33.6575435 61.0013948,33.7768094 C60.7405006,33.8960753 60.4535171,33.9557082 60.1404442,33.9557082 C59.7975548,33.9557082 59.5105712,33.8588047 59.2794936,33.6649976 C59.0484159,33.4711906 58.8956065,33.2028424 58.8210653,32.8599529 C59.1490465,32.8450447 59.4733006,32.7593224 59.7938277,32.6027859 C60.1143548,32.4462494 60.3976112,32.2412612 60.6435971,31.9878212 C60.889583,31.7343812 61.0908442,31.4511247 61.2473806,31.1380518 C61.4039171,30.8249788 61.4821853,30.4969976 61.4821853,30.1541082 C61.4821853,29.7664941 61.3741006,29.4459671 61.1579312,29.1925271 C60.9417618,28.9390871 60.6398701,28.8123671 60.2522559,28.8123671 C59.8348253,28.8123671 59.4583924,28.9279059 59.1229571,29.1589835 C58.7875218,29.3900612 58.5042653,29.6807718 58.2731877,30.0311153 C58.0421101,30.3814588 57.8669383,30.7653459 57.7476724,31.1827765 C57.6284065,31.6002071 57.5687736,31.9952753 57.5687736,32.3679812 C57.5687736,32.7257788 57.6246795,33.0723953 57.7364912,33.4078306 C57.848303,33.7432659 58.0085665,34.0377035 58.2172818,34.2911435 C58.4259971,34.5445835 58.6794371,34.7495718 58.9776018,34.9061082 C59.2757665,35.0626447 59.6186559,35.1409129 60.0062701,35.1409129 Z M59.0446889,31.6971106 C58.9850559,31.6971106 58.8956065,31.6822024 58.7763406,31.6523859 C58.7912489,31.5033035 58.8322465,31.3244047 58.8993336,31.1156894 C58.9664206,30.9069741 59.052143,30.70944 59.1565006,30.5230871 C59.2608583,30.3367341 59.3913053,30.1801976 59.5478418,30.0534776 C59.7043783,29.9267576 59.8795501,29.8633976 60.0733571,29.8633976 C60.1777148,29.8633976 60.255983,29.9379388 60.3081618,30.0870212 C60.3603406,30.2361035 60.3864301,30.3479153 60.3864301,30.4224565 C60.3864301,30.5715388 60.3454324,30.7206212 60.2634371,30.8697035 C60.1814418,31.0187859 60.0733571,31.1566871 59.939183,31.2834071 C59.8050089,31.4101271 59.6596536,31.5107576 59.5031171,31.5852988 C59.3465806,31.65984 59.1937712,31.6971106 59.0446889,31.6971106 Z" id="ie" fill="#FFFFFF" fill-rule="nonzero"></path>
                </g>
            </g>
        </g>
    </g>
</svg>