<?xml version="1.0" encoding="utf-8"?>
<!-- Generator: Adobe Illustrator 13.0.0, SVG Export Plug-In . SVG Version: 6.00 Build 14948)  -->
<!DOCTYPE svg PUBLIC "-//W3C//DTD SVG 1.1//EN" "http://www.w3.org/Graphics/SVG/1.1/DTD/svg11.dtd">
<svg version="1.1" id="Layer_1" xmlns="http://www.w3.org/2000/svg" xmlns:xlink="http://www.w3.org/1999/xlink" x="0px" y="0px"
	 width="40px" height="60px" viewBox="0 0 40 60" enable-background="new 0 0 40 60" xml:space="preserve">
<g>
	<path fill="#E74C3C" d="M36.257,16.62v13.787c0,1.626-0.869,3.133-2.279,3.948l-11.939,6.896c-1.412,0.813-3.148,0.813-4.56,0
		l-11.94-6.896c-1.41-0.815-2.279-2.32-2.279-3.948V16.62c0-1.628,0.869-3.133,2.279-3.948l11.94-6.894
		c1.411-0.815,3.147-0.815,4.56,0l11.939,6.894C35.388,13.487,36.257,14.992,36.257,16.62z"/>
	<path fill="#FFFFFF" d="M16.472,33.507c0.382,0,0.638-0.135,0.765-0.414c0.129-0.276,0.234-0.563,0.318-0.86
		c0.064-0.359,0.188-0.823,0.367-1.387c0.182-0.564,0.399-1.133,0.655-1.709c0.254-0.574,0.536-1.095,0.847-1.562
		c0.307-0.47,0.632-0.777,0.972-0.928c0.191,0.383,0.318,0.842,0.383,1.374c0.063,0.532,0.164,1.035,0.305,1.515
		c0.139,0.477,0.363,0.881,0.67,1.213c0.307,0.327,0.801,0.493,1.482,0.493c0.383,0,0.803-0.123,1.26-0.365
		c0.457-0.244,0.877-0.559,1.26-0.942c0.383-0.383,0.707-0.798,0.975-1.244c0.266-0.448,0.398-0.863,0.398-1.246
		c0-0.192-0.059-0.372-0.174-0.542c-0.119-0.172-0.295-0.256-0.527-0.256c-0.256,0-0.469,0.156-0.639,0.463
		c-0.172,0.307-0.352,0.644-0.543,1.006c-0.191,0.361-0.43,0.696-0.717,1.005c-0.287,0.308-0.666,0.462-1.135,0.462
		c-0.277,0-0.473-0.117-0.59-0.351c-0.117-0.233-0.209-0.52-0.271-0.86c-0.063-0.341-0.121-0.717-0.176-1.133
		c-0.053-0.415-0.137-0.793-0.254-1.132c-0.117-0.34-0.297-0.627-0.543-0.861c-0.244-0.234-0.58-0.351-1.004-0.351
		c-0.277,0-0.561,0.105-0.847,0.319c-0.286,0.212-0.559,0.462-0.813,0.75c-0.255,0.289-0.49,0.584-0.702,0.892
		c-0.213,0.31-0.383,0.571-0.51,0.781l0.128-1.72c0.616-0.639,1.201-1.342,1.754-2.108c0.555-0.766,1.037-1.573,1.453-2.423
		c0.416-0.851,0.744-1.728,0.986-2.633c0.246-0.905,0.369-1.813,0.369-2.728c0-0.255-0.016-0.531-0.051-0.829
		c-0.027-0.298-0.104-0.574-0.221-0.827c-0.117-0.256-0.277-0.464-0.479-0.623c-0.203-0.16-0.475-0.24-0.814-0.24
		c-0.66,0-1.233,0.298-1.724,0.894c-0.488,0.596-0.909,1.362-1.259,2.298c-0.353,0.935-0.641,1.976-0.863,3.127
		c-0.224,1.146-0.402,2.269-0.542,3.365c-0.138,1.094-0.233,2.105-0.287,3.03s-0.081,1.633-0.081,2.122
		c0,0.702-0.016,1.394-0.048,2.073c-0.031,0.682-0.122,1.363-0.271,2.041c-0.021,0.044-0.031,0.119-0.031,0.226
		c0,0.233,0.069,0.43,0.207,0.59C16.052,33.428,16.238,33.507,16.472,33.507L16.472,33.507z M17.876,23.809
		c0.065-0.509,0.177-1.178,0.336-2.008c0.16-0.831,0.356-1.676,0.59-2.537c0.234-0.861,0.5-1.669,0.797-2.423
		c0.299-0.756,0.629-1.294,0.988-1.613c0.086,0.192,0.139,0.395,0.16,0.607s0.031,0.425,0.031,0.638
		c0,0.637-0.084,1.286-0.256,1.947c-0.17,0.659-0.387,1.308-0.654,1.946c-0.266,0.637-0.575,1.25-0.925,1.833
		C18.591,22.784,18.237,23.321,17.876,23.809L17.876,23.809z M24.468,15.278c0.186,0,0.338-0.072,0.457-0.221
		c0.121-0.149,0.182-0.311,0.182-0.488c0-0.121-0.035-0.236-0.104-0.343c-0.068-0.109-0.17-0.164-0.307-0.164
		c-0.105,0-0.197,0.03-0.275,0.084c-0.082,0.058-0.148,0.127-0.201,0.211c-0.051,0.085-0.088,0.177-0.113,0.276
		c-0.023,0.102-0.037,0.194-0.037,0.283c0,0.113,0.039,0.201,0.115,0.265C24.263,15.247,24.356,15.278,24.468,15.278z M24.517,18.78
		c0.266,0,0.514-0.084,0.748-0.252c0.086-0.074,0.195-0.17,0.324-0.294s0.25-0.261,0.367-0.41c0.115-0.148,0.215-0.296,0.291-0.445
		c0.084-0.146,0.123-0.282,0.123-0.402c0-0.072-0.025-0.132-0.072-0.179c-0.051-0.05-0.109-0.074-0.18-0.074
		c-0.057,0-0.105,0.019-0.152,0.054c-0.043,0.037-0.08,0.074-0.113,0.114c-0.049,0.087-0.115,0.205-0.205,0.348
		c-0.088,0.147-0.186,0.286-0.293,0.423c-0.109,0.135-0.223,0.253-0.344,0.355c-0.119,0.099-0.238,0.149-0.359,0.149
		c-0.074,0-0.133-0.018-0.174-0.054c-0.045-0.036-0.076-0.081-0.092-0.133c-0.016-0.052-0.025-0.109-0.029-0.174
		s-0.006-0.125-0.006-0.18c0-0.128,0.012-0.263,0.035-0.401c0.025-0.142,0.051-0.279,0.078-0.411
		c0.027-0.133,0.055-0.258,0.078-0.373c0.023-0.117,0.035-0.219,0.035-0.308c0-0.088-0.023-0.162-0.078-0.221
		c-0.053-0.06-0.121-0.089-0.211-0.089c-0.135,0-0.242,0.077-0.318,0.233c-0.074,0.157-0.133,0.338-0.174,0.542
		c-0.041,0.204-0.064,0.41-0.072,0.612c-0.008,0.204-0.014,0.354-0.014,0.452c0,0.135,0.014,0.271,0.035,0.401
		c0.025,0.134,0.066,0.253,0.127,0.362c0.061,0.108,0.145,0.193,0.246,0.259C24.224,18.748,24.356,18.78,24.517,18.78L24.517,18.78z
		 M27.218,18.528c0.201,0,0.398-0.042,0.596-0.128c0.195-0.084,0.383-0.191,0.559-0.323c0.176-0.133,0.336-0.286,0.477-0.458
		c0.139-0.174,0.256-0.343,0.342-0.512c0.023-0.032,0.037-0.077,0.037-0.131c0-0.072-0.025-0.134-0.074-0.187
		c-0.049-0.053-0.107-0.079-0.18-0.079c-0.063,0-0.105,0.011-0.125,0.029c-0.021,0.02-0.053,0.055-0.092,0.103
		c-0.088,0.121-0.184,0.242-0.285,0.367c-0.1,0.124-0.209,0.236-0.328,0.335c-0.119,0.102-0.25,0.184-0.391,0.248
		s-0.297,0.097-0.465,0.097c-0.186,0-0.338-0.052-0.463-0.156c-0.125-0.105-0.207-0.248-0.246-0.433
		c0.176-0.008,0.35-0.053,0.523-0.139c0.174-0.083,0.326-0.192,0.459-0.33c0.133-0.136,0.24-0.29,0.324-0.456
		c0.084-0.169,0.127-0.346,0.127-0.529c0-0.209-0.059-0.382-0.176-0.52c-0.115-0.136-0.277-0.204-0.486-0.204
		c-0.223,0-0.426,0.062-0.605,0.187c-0.182,0.124-0.336,0.281-0.459,0.47c-0.125,0.188-0.219,0.395-0.283,0.62
		c-0.064,0.223-0.096,0.438-0.096,0.637c0,0.192,0.029,0.378,0.09,0.559c0.061,0.179,0.146,0.338,0.26,0.475
		c0.111,0.136,0.246,0.246,0.408,0.331C26.827,18.486,27.009,18.528,27.218,18.528z M26.7,16.674c-0.031,0-0.082-0.007-0.145-0.025
		c0.01-0.079,0.031-0.176,0.066-0.288c0.037-0.111,0.082-0.219,0.139-0.318c0.055-0.099,0.127-0.186,0.211-0.253
		c0.082-0.068,0.178-0.102,0.281-0.102c0.057,0,0.1,0.04,0.129,0.119c0.027,0.081,0.043,0.141,0.043,0.182
		c0,0.079-0.023,0.161-0.068,0.241c-0.043,0.08-0.104,0.154-0.174,0.221c-0.07,0.068-0.152,0.124-0.232,0.163
		C26.864,16.655,26.78,16.674,26.7,16.674z"/>
</g>
<g enable-background="new    ">
	<path fill="#FFFFFF" d="M1.152,53.592v-7.9h1.638c1.182,0,2.039,0.094,2.573,0.283c0.766,0.27,1.365,0.734,1.797,1.396
		c0.431,0.662,0.647,1.453,0.647,2.369c0,0.791-0.171,1.488-0.513,2.09c-0.342,0.602-0.786,1.045-1.332,1.332
		c-0.546,0.285-1.311,0.43-2.296,0.43H1.152z M1.91,52.846h0.913c1.092,0,1.85-0.068,2.272-0.205
		c0.594-0.193,1.062-0.541,1.402-1.043c0.34-0.504,0.51-1.117,0.51-1.844c0-0.762-0.185-1.414-0.553-1.953
		c-0.369-0.541-0.883-0.91-1.542-1.111c-0.494-0.15-1.309-0.225-2.444-0.225H1.91V52.846z"/>
	<path fill="#FFFFFF" d="M9.343,45.691h4.528v0.773h-3.738v2.475h3.706v0.773h-3.706v3.105h3.706v0.773H9.343V45.691z"/>
	<path fill="#FFFFFF" d="M14.634,45.691h0.859l2.619,6.104l2.662-6.104h0.859l-3.438,7.9h-0.172L14.634,45.691z"/>
	<path fill="#FFFFFF" d="M22.846,45.691h0.79v7.9h-0.79V45.691z"/>
	<path fill="#FFFFFF" d="M32.805,47.156l-0.623,0.479c-0.344-0.447-0.757-0.787-1.238-1.018c-0.482-0.23-1.011-0.346-1.588-0.346
		c-0.63,0-1.213,0.15-1.75,0.453s-0.954,0.709-1.249,1.219c-0.296,0.51-0.443,1.084-0.443,1.723c0,0.963,0.33,1.766,0.991,2.41
		c0.66,0.645,1.494,0.967,2.5,0.967c1.106,0,2.032-0.434,2.777-1.299l0.623,0.473c-0.395,0.5-0.886,0.889-1.475,1.162
		c-0.59,0.273-1.247,0.412-1.975,0.412c-1.382,0-2.473-0.461-3.271-1.381c-0.669-0.777-1.005-1.715-1.005-2.814
		c0-1.156,0.406-2.131,1.217-2.92c0.812-0.789,1.827-1.184,3.049-1.184c0.737,0,1.403,0.145,1.998,0.438
		C31.938,46.221,32.425,46.631,32.805,47.156z"/>
	<path fill="#FFFFFF" d="M34.395,45.691h4.527v0.773h-3.738v2.475h3.706v0.773h-3.706v3.105h3.706v0.773h-4.495V45.691z"/>
</g>
</svg>
