<?xml version="1.0" encoding="utf-8"?>
<!-- Generator: Adobe Illustrator 13.0.0, SVG Export Plug-In . SVG Version: 6.00 Build 14948)  -->
<!DOCTYPE svg PUBLIC "-//W3C//DTD SVG 1.1//EN" "http://www.w3.org/Graphics/SVG/1.1/DTD/svg11.dtd">
<svg version="1.1" id="Layer_1" xmlns="http://www.w3.org/2000/svg" xmlns:xlink="http://www.w3.org/1999/xlink" x="0px" y="0px"
	 width="294px" height="90px" viewBox="0 0 294 90" enable-background="new 0 0 294 90" xml:space="preserve">
<title>Works with</title>
<desc>Created with Sketch.</desc>
<g id="Page-1">
	<g id="Works-with" transform="translate(13.000000, 268.000000)">
		<g transform="translate(0 -405.36)">
			<g transform="translate(.000014172 .000022107)">
				<path opacity="0.98" fill="#8F0000" enable-background="new    " d="M26.562,147.476l29.563,17.106v34.137l-29.563,17.071
					L-3,198.718v-34.146L26.562,147.476z"/>
				<path fill-opacity="0.199" d="M26.411,212.317l-2.969-1.558L0.287,185.505l0.408-1.316h11.388l2.082-6.919l1.83,2.625
					l6.118-6.868l5.053-1.357l0.226,3.544l3.544,0.377l3.544,0.075l9.201,0.226l1.58-7.424l7.888,9.26l-0.221,6.888l-12.153,0.002
					l-0.209,6.38l12.693,1.336l0.151,4.507L26.411,212.317z"/>
				<path opacity="0.98" fill="#FFFFFF" enable-background="new    " d="M-0.704,185.642v11.418c0,0.189,0.101,0.364,0.264,0.458
					l26.738,15.41c0.163,0.096,0.364,0.096,0.527,0l26.697-15.411c0.164-0.095,0.279-0.269,0.279-0.457v-3.733v-2.354v-5.331v-2.353
					v-17.048c0-0.188-0.115-0.362-0.279-0.458l-26.697-15.409c-0.076-0.044-0.163-0.068-0.251-0.07
					c-0.097-0.002-0.193,0.022-0.276,0.07l-26.738,15.409c-0.164,0.095-0.264,0.27-0.264,0.458v9.363v2.196v5.489V185.642z
					 M26.562,151.442l26.184,15.104v16.722h-10.49c-1.857,0-3.446,1.55-3.446,3.406v0.456c-6.305-0.046-8.185-1.678-10.53-3.728
					c-1.948-1.706-4.39-3.57-9.3-4.35c0.916-0.917,1.466-1.961,1.957-2.851c0.527-0.955,1.004-1.713,1.767-2.236
					c0.594-0.408,1.608-0.653,2.921-0.731v0.428c0,1.856,1.442,3.376,3.298,3.376h13.441c1.856,0,3.521-1.52,3.521-3.376v-3.301
					c0-1.857-1.659-3.353-3.515-3.353l-13.441-0.001c-1.856,0-3.305,1.497-3.305,3.352v0.603c-1.736,0.086-3.214,0.426-4.218,1.115
					c-1.242,0.851-1.921,2.009-2.477,3.018c-0.557,1.008-1.012,1.875-1.674,2.483c-0.564,0.518-1.356,0.873-2.642,1.035
					c-0.167-1.706-1.65-2.938-3.397-2.947H0.378v-9.121L26.562,151.442z M28.929,169.331H42.37c0.626,0,1.086,0.403,1.086,1.029
					v3.303c0,0.627-0.466,1.053-1.093,1.053h-13.44c-0.626,0-1.137-0.426-1.137-1.053v-3.303
					C27.786,169.734,28.302,169.331,28.929,169.331L28.929,169.331z M0.379,177.778h10.837c0.627,0,1.093,0.519,1.093,1.146v3.303
					c0,0.627-0.466,1.042-1.093,1.042H0.379V177.778z M14.678,180.971c7.572,0.119,9.66,2.026,12.095,4.156
					c2.336,2.043,5.21,4.187,12.037,4.277v0.573c0,1.856,1.59,3.32,3.447,3.32h10.49v3.457l-26.184,15.107L0.379,196.755v-11.165
					h10.838c1.856,0,3.46-1.507,3.46-3.363V180.971z M42.257,185.59h10.491v5.385H42.257c-0.626,0-1.124-0.429-1.124-1.057v-3.244
					C41.134,186.048,41.63,185.59,42.257,185.59L42.257,185.59z"/>
			</g>
		</g>
		<path id="Rectangle" fill="none" stroke="#CFCFCF" d="M0.289-267.5h286.673c7.063,0,12.788,5.373,12.788,12v65
			c0,6.627-5.726,12-12.788,12H0.289c-7.063,0-12.789-5.373-12.789-12v-65C-12.5-262.127-6.774-267.5,0.289-267.5z"/>
		<path id="workswithMQTTHomie" fill="#7B7B7B" d="M116.983-235l2.299-7.144L121.6-235h1.786l3.002-9.31h-1.786l-2.052,7.03h-0.019
			l-2.299-7.03h-1.805l-2.299,7.03h-0.019l-2.071-7.03h-1.824l3.002,9.31H116.983z M131.793-234.696c1.381,0,2.521-0.469,3.42-1.406
			c0.911-0.925,1.368-2.109,1.368-3.553c0-1.432-0.457-2.616-1.368-3.553c-0.899-0.938-2.04-1.406-3.42-1.406
			c-1.38,0-2.527,0.468-3.439,1.406c-0.899,0.938-1.349,2.122-1.349,3.553c0,1.431,0.45,2.615,1.349,3.553
			C129.267-235.165,130.413-234.696,131.793-234.696z M131.793-236.292c-0.861,0-1.583-0.311-2.166-0.931
			c-0.583-0.621-0.874-1.431-0.874-2.432c0-0.988,0.291-1.792,0.874-2.413c0.595-0.633,1.317-0.95,2.166-0.95
			c0.849,0,1.571,0.317,2.166,0.95c0.583,0.621,0.875,1.425,0.875,2.413c0,1-0.291,1.811-0.875,2.432
			C133.377-236.603,132.655-236.292,131.793-236.292z M139.936-235v-5.13c0-0.709,0.244-1.33,0.731-1.862
			c0.487-0.532,1.062-0.798,1.72-0.798c0.469,0,0.811,0.044,1.025,0.133l0,0l0.533-1.691c-0.355-0.152-0.786-0.228-1.293-0.228
			c-0.531,0-1.073,0.174-1.624,0.522c-0.552,0.349-0.915,0.77-1.093,1.264l0,0h-0.076v-1.52h-1.672v9.31H139.936z M147.128-235
			v-2.983l1.425-1.406l2.906,4.389h2.109v-0.076l-3.8-5.548l3.629-3.61v-0.076h-2.241l-4.028,4.085v-8.379h-1.748V-235H147.128z
			 M157.949-234.696c1.076,0,1.969-0.279,2.679-0.836c0.709-0.558,1.064-1.242,1.064-2.052c0-1.406-0.926-2.337-2.774-2.793l0,0
			l-1.406-0.361c-1-0.228-1.501-0.608-1.501-1.14c0-0.33,0.181-0.608,0.542-0.836c0.36-0.228,0.77-0.342,1.225-0.342
			c0.494,0,0.941,0.111,1.34,0.333s0.688,0.529,0.865,0.921l0,0l1.558-0.646c-0.266-0.659-0.732-1.185-1.397-1.577
			c-0.664-0.393-1.408-0.589-2.232-0.589c-1.076,0-1.959,0.256-2.65,0.77c-0.689,0.513-1.035,1.193-1.035,2.042
			c0,1.292,0.906,2.166,2.717,2.622l0,0l1.596,0.399c0.912,0.278,1.369,0.715,1.369,1.311c0,0.33-0.188,0.615-0.561,0.855
			c-0.374,0.24-0.84,0.361-1.396,0.361c-0.52,0-0.998-0.155-1.436-0.465c-0.437-0.311-0.77-0.745-0.997-1.302l0,0l-1.558,0.665
			c0.304,0.798,0.811,1.441,1.52,1.929C156.188-234.94,157.012-234.696,157.949-234.696z M171.573-235l2.299-7.144L176.19-235h1.785
			l3.002-9.31h-1.785l-2.053,7.03h-0.02l-2.299-7.03h-1.805l-2.299,7.03h-0.02l-2.07-7.03h-1.824l3.002,9.31H171.573z
			 M183.344-246.286c0.342,0,0.634-0.12,0.874-0.361s0.361-0.532,0.361-0.874s-0.121-0.633-0.361-0.874s-0.532-0.361-0.874-0.361
			c-0.343,0-0.634,0.12-0.874,0.361s-0.361,0.532-0.361,0.874s0.121,0.633,0.361,0.874S183.001-246.286,183.344-246.286z
			 M184.218-235v-9.31h-1.748v9.31H184.218z M190.288-234.848c0.608,0,1.141-0.082,1.597-0.247l0,0l-0.552-1.558
			c-0.113,0.05-0.236,0.092-0.369,0.124c-0.134,0.032-0.27,0.047-0.409,0.047c-0.304,0-0.576-0.111-0.817-0.333
			c-0.24-0.222-0.361-0.643-0.361-1.264l0,0v-4.636h2.281v-1.596h-2.281v-2.85h-1.747v2.85h-1.634v1.596h1.634v5.206
			c0.013,0.836,0.269,1.488,0.769,1.957C188.898-235.083,189.528-234.848,190.288-234.848z M195.372-235v-5.073
			c0-0.786,0.244-1.473,0.73-2.062c0.488-0.589,1.087-0.884,1.797-0.884c1.481,0,2.223,0.836,2.223,2.508l0,0v5.51h1.748v-5.852
			c0-1.203-0.308-2.131-0.922-2.783s-1.492-0.979-2.631-0.979c-0.596,0-1.17,0.152-1.721,0.456c-0.551,0.304-0.959,0.684-1.225,1.14
			l0,0h-0.076l0.076-1.292v-4.294h-1.748V-235H195.372z M117.688-199v-11.67l-0.18-3.6h0.18l6.09,10.709h2.01l6.12-10.709h0.18
			l-0.18,3.6V-199h3.36v-21.48h-3.36l-7.02,12.211h-0.18l-7.02-12.211h-3.39V-199H117.688z M156.164-197.29l2.58-1.71l-1.561-2.34
			c1.141-1.04,2.029-2.275,2.67-3.705s0.96-2.995,0.96-4.695c0-1.56-0.28-3.02-0.84-4.38s-1.341-2.55-2.341-3.569
			c-1-1.021-2.18-1.82-3.539-2.4c-1.36-0.58-2.83-0.87-4.41-0.87c-1.6,0-3.075,0.29-4.426,0.87c-1.35,0.58-2.524,1.38-3.524,2.4
			c-1,1.02-1.78,2.209-2.34,3.569s-0.84,2.82-0.84,4.38c0,1.561,0.28,3.025,0.84,4.395c0.56,1.371,1.34,2.561,2.34,3.57
			s2.175,1.805,3.524,2.385c1.351,0.58,2.826,0.871,4.426,0.871c1.76,0,3.4-0.371,4.92-1.11l0,0L156.164-197.29z M149.684-201.76
			c-1.061,0-2.061-0.19-3-0.57s-1.755-0.92-2.445-1.62c-0.689-0.7-1.234-1.54-1.635-2.521c-0.4-0.979-0.6-2.069-0.6-3.27
			c0-1.199,0.199-2.289,0.6-3.27s0.945-1.82,1.635-2.52c0.69-0.701,1.506-1.24,2.445-1.621c0.939-0.379,1.939-0.57,3-0.57
			s2.061,0.191,3,0.57c0.939,0.381,1.755,0.92,2.445,1.621c0.689,0.699,1.234,1.539,1.635,2.52s0.6,2.07,0.6,3.27
			c0,1.141-0.185,2.18-0.555,3.12s-0.875,1.761-1.516,2.46l0,0l-2.43-3.63l-2.58,1.74l2.43,3.659
			c-0.459,0.201-0.944,0.355-1.455,0.466C150.748-201.814,150.224-201.76,149.684-201.76z M171.449-199v-18.24h6v-3.24h-15.39v3.24
			h6V-199H171.449z M188.595-199v-18.24h6v-3.24h-15.39v3.24h6V-199H188.595z M208.097-199v-9.391h9.93V-199h3.391v-21.48h-3.391
			v8.91h-9.93v-8.91h-3.391V-199H208.097z M232.413-198.52c1.119,0,2.149-0.195,3.09-0.586c0.939-0.39,1.75-0.935,2.43-1.635
			c0.68-0.699,1.21-1.529,1.59-2.49c0.38-0.959,0.57-2,0.57-3.119c0-1.121-0.19-2.16-0.57-3.121c-0.38-0.959-0.91-1.789-1.59-2.489
			s-1.49-1.245-2.43-1.636c-0.94-0.389-1.971-0.584-3.09-0.584c-1.121,0-2.15,0.195-3.091,0.584c-0.94,0.391-1.75,0.936-2.43,1.636
			c-0.681,0.7-1.21,1.53-1.591,2.489c-0.379,0.961-0.569,2-0.569,3.121c0,1.119,0.19,2.16,0.569,3.119
			c0.381,0.961,0.91,1.791,1.591,2.49c0.68,0.7,1.489,1.245,2.43,1.635C230.263-198.715,231.292-198.52,232.413-198.52z
			 M232.413-201.609c-0.561,0-1.101-0.111-1.621-0.33c-0.52-0.221-0.984-0.531-1.395-0.931s-0.734-0.896-0.975-1.485
			s-0.36-1.254-0.36-1.994s0.12-1.405,0.36-1.996c0.24-0.59,0.564-1.084,0.975-1.484s0.875-0.71,1.395-0.93
			c0.521-0.221,1.061-0.33,1.621-0.33c0.56,0,1.1,0.109,1.619,0.33c0.52,0.22,0.985,0.529,1.395,0.93
			c0.41,0.4,0.736,0.895,0.976,1.484c0.24,0.591,0.36,1.256,0.36,1.996s-0.12,1.404-0.36,1.994c-0.239,0.59-0.565,1.086-0.976,1.485
			c-0.409,0.399-0.875,0.71-1.395,0.931C233.513-201.721,232.973-201.609,232.413-201.609z M245.958-199v-7.62
			c0-0.601,0.08-1.17,0.24-1.71s0.391-1.016,0.689-1.425c0.301-0.41,0.66-0.735,1.08-0.976s0.891-0.359,1.41-0.359
			c0.961,0,1.695,0.255,2.205,0.765c0.51,0.511,0.766,1.405,0.766,2.685l0,0V-199h3.33v-7.62c0-0.601,0.08-1.17,0.24-1.71
			c0.159-0.54,0.389-1.016,0.689-1.425c0.3-0.41,0.665-0.735,1.095-0.976c0.431-0.24,0.915-0.359,1.455-0.359
			c0.94,0,1.655,0.255,2.146,0.765c0.49,0.511,0.734,1.405,0.734,2.685l0,0V-199h3.33v-9.21c0-0.899-0.109-1.715-0.33-2.444
			c-0.22-0.73-0.545-1.355-0.975-1.875c-0.43-0.521-0.975-0.926-1.635-1.216s-1.44-0.435-2.34-0.435
			c-1.181,0-2.19,0.265-3.031,0.795c-0.84,0.529-1.51,1.185-2.01,1.965c-0.359-0.82-0.935-1.484-1.725-1.995
			c-0.79-0.51-1.734-0.765-2.835-0.765c-0.92,0-1.79,0.229-2.61,0.689c-0.82,0.461-1.459,1.051-1.92,1.77l0,0h-0.18v-1.979h-3.15
			v14.7H245.958z M270.845-216.311c0.619,0,1.145-0.219,1.574-0.66c0.43-0.439,0.645-0.969,0.645-1.59
			c0-0.619-0.215-1.149-0.645-1.59c-0.43-0.439-0.955-0.66-1.574-0.66c-0.641,0-1.176,0.221-1.605,0.66
			c-0.43,0.44-0.645,0.971-0.645,1.59c0,0.621,0.215,1.15,0.645,1.59C269.669-216.529,270.204-216.311,270.845-216.311z
			 M272.494-199v-14.7h-3.33v14.7H272.494z M283.04-198.52c1.66,0,3.06-0.381,4.199-1.141c1.141-0.76,2.021-1.71,2.641-2.85l0,0
			l-2.85-1.41c-0.4,0.68-0.91,1.25-1.53,1.71s-1.41,0.69-2.37,0.69c-0.48,0-0.971-0.08-1.471-0.24s-0.955-0.41-1.364-0.75
			c-0.41-0.34-0.755-0.77-1.035-1.29s-0.45-1.13-0.51-1.83l0,0h11.31c0-0.08,0.01-0.16,0.03-0.24c0-0.08,0.01-0.17,0.03-0.271l0,0
			v-0.27c0-1.14-0.166-2.189-0.495-3.15c-0.33-0.959-0.806-1.779-1.425-2.459c-0.621-0.681-1.375-1.211-2.266-1.59
			c-0.89-0.381-1.904-0.57-3.045-0.57c-1.119,0-2.14,0.209-3.061,0.63c-0.92,0.42-1.704,0.985-2.354,1.694
			c-0.649,0.711-1.155,1.541-1.515,2.49c-0.36,0.95-0.54,1.955-0.54,3.016c0,1.14,0.19,2.185,0.569,3.135
			c0.381,0.949,0.91,1.775,1.59,2.475c0.681,0.7,1.486,1.245,2.416,1.635C280.925-198.715,281.94-198.52,283.04-198.52z
			 M286.79-208.18h-7.83c0.24-0.961,0.705-1.725,1.395-2.295c0.69-0.57,1.516-0.855,2.475-0.855c0.701,0,1.296,0.109,1.785,0.33
			c0.49,0.221,0.891,0.484,1.201,0.795c0.31,0.311,0.539,0.65,0.689,1.02C286.655-208.814,286.75-208.48,286.79-208.18
			L286.79-208.18z"/>
		<g id="Homie-logo" transform="translate(3.000000, 0.000000)">
			<path id="Polygon" fill="#E74C3C" d="M100.057-236.406v25.626c0,3.025-1.614,5.822-4.235,7.335l-22.192,12.813
				c-2.621,1.513-5.85,1.513-8.471,0l-22.193-12.813c-2.621-1.513-4.235-4.31-4.235-7.335v-25.626c0-3.026,1.614-5.823,4.235-7.336
				l22.193-12.813c2.621-1.513,5.85-1.513,8.471,0l22.192,12.813C98.442-242.229,100.057-239.432,100.057-236.406z"/>
			<path id="h" fill="#FFFFFF" d="M63.286-205.018c0.711,0,1.186-0.256,1.423-0.77c0.237-0.515,0.435-1.049,0.593-1.602
				c0.119-0.672,0.346-1.531,0.682-2.58c0.336-1.047,0.741-2.104,1.216-3.172c0.474-1.066,0.998-2.035,1.571-2.904
				c0.573-0.871,1.176-1.443,1.808-1.721c0.356,0.712,0.593,1.563,0.712,2.551c0.118,0.988,0.306,1.926,0.563,2.816
				c0.257,0.889,0.672,1.64,1.245,2.252c0.573,0.613,1.492,0.92,2.757,0.92c0.711,0,1.492-0.228,2.342-0.682
				c0.85-0.455,1.63-1.038,2.342-1.75c0.712-0.711,1.314-1.482,1.809-2.313s0.741-1.601,0.741-2.313
				c0-0.355-0.109-0.691-0.326-1.008s-0.543-0.475-0.979-0.475c-0.474,0-0.87,0.287-1.186,0.86
				c-0.316,0.573-0.652,1.196-1.008,1.868c-0.355,0.672-0.8,1.294-1.334,1.867s-1.235,0.859-2.105,0.859
				c-0.514,0-0.879-0.217-1.097-0.652c-0.218-0.434-0.386-0.968-0.504-1.601c-0.119-0.632-0.228-1.334-0.326-2.104
				c-0.099-0.771-0.257-1.473-0.475-2.105s-0.553-1.166-1.008-1.601s-1.077-0.652-1.868-0.652c-0.514,0-1.038,0.198-1.571,0.593
				c-0.534,0.396-1.038,0.859-1.512,1.394s-0.909,1.087-1.305,1.66c-0.395,0.573-0.711,1.058-0.949,1.452l0.237-3.201
				c1.146-1.186,2.233-2.49,3.261-3.914c1.028-1.423,1.927-2.925,2.698-4.506c0.771-1.581,1.384-3.211,1.838-4.892
				s0.682-3.37,0.682-5.07c0-0.474-0.029-0.988-0.089-1.542c-0.059-0.553-0.198-1.067-0.415-1.542
				c-0.217-0.475-0.514-0.86-0.889-1.156c-0.375-0.297-0.88-0.445-1.512-0.445c-1.226,0-2.292,0.553-3.202,1.66
				s-1.69,2.53-2.342,4.269s-1.186,3.676-1.601,5.811s-0.751,4.22-1.008,6.255c-0.257,2.037-0.435,3.914-0.534,5.632
				c-0.099,1.721-0.148,3.035-0.148,3.943c0,1.305-0.029,2.59-0.089,3.854c-0.059,1.265-0.227,2.53-0.504,3.795
				c-0.04,0.079-0.059,0.218-0.059,0.415c0,0.436,0.128,0.801,0.385,1.098C62.505-205.165,62.851-205.018,63.286-205.018z
				 M65.895-223.042c0.119-0.949,0.326-2.194,0.623-3.735s0.662-3.113,1.097-4.714c0.435-1.601,0.929-3.103,1.482-4.506
				c0.553-1.403,1.166-2.401,1.838-2.995c0.158,0.356,0.257,0.731,0.296,1.127c0.04,0.395,0.06,0.791,0.06,1.186
				c0,1.186-0.158,2.392-0.475,3.617s-0.721,2.431-1.215,3.617c-0.494,1.186-1.067,2.323-1.72,3.41S66.567-223.952,65.895-223.042z"
				/>
			<path id="ie" fill="#FFFFFF" d="M78.148-238.897c0.343,0,0.626-0.138,0.85-0.414s0.335-0.578,0.335-0.906
				c0-0.224-0.063-0.436-0.19-0.637s-0.317-0.302-0.57-0.302c-0.194,0-0.365,0.052-0.514,0.157
				c-0.149,0.104-0.272,0.235-0.369,0.391c-0.097,0.157-0.167,0.328-0.212,0.515s-0.067,0.361-0.067,0.525
				c0,0.209,0.071,0.373,0.212,0.492S77.939-238.897,78.148-238.897z M78.237-232.39c0.492,0,0.954-0.156,1.387-0.469
				c0.164-0.134,0.365-0.317,0.604-0.548c0.239-0.231,0.466-0.485,0.682-0.761c0.216-0.275,0.399-0.551,0.548-0.827
				s0.224-0.525,0.224-0.749c0-0.134-0.045-0.246-0.134-0.335s-0.201-0.134-0.335-0.134c-0.104,0-0.197,0.034-0.279,0.101
				s-0.153,0.138-0.212,0.212c-0.089,0.164-0.216,0.38-0.38,0.648c-0.164,0.269-0.347,0.529-0.548,0.783s-0.414,0.474-0.637,0.66
				c-0.224,0.187-0.447,0.28-0.671,0.28c-0.134,0-0.242-0.034-0.324-0.101c-0.082-0.067-0.138-0.149-0.168-0.246
				c-0.03-0.097-0.048-0.205-0.056-0.324s-0.011-0.231-0.011-0.335c0-0.239,0.022-0.488,0.067-0.75
				c0.045-0.261,0.093-0.514,0.146-0.76c0.052-0.246,0.101-0.477,0.146-0.693c0.044-0.216,0.067-0.406,0.067-0.57
				s-0.048-0.302-0.146-0.414c-0.097-0.111-0.227-0.167-0.391-0.167c-0.253,0-0.451,0.146-0.593,0.436
				c-0.142,0.291-0.25,0.626-0.324,1.006c-0.074,0.38-0.119,0.76-0.134,1.141c-0.015,0.38-0.022,0.66-0.022,0.838
				c0,0.253,0.022,0.503,0.067,0.749c0.045,0.246,0.123,0.47,0.235,0.671s0.265,0.362,0.458,0.481S77.939-232.39,78.237-232.39z
				 M83.256-232.859c0.373,0,0.742-0.079,1.107-0.235c0.365-0.157,0.712-0.358,1.04-0.604c0.328-0.246,0.623-0.529,0.883-0.85
				c0.261-0.321,0.474-0.637,0.638-0.951c0.044-0.06,0.067-0.142,0.067-0.246c0-0.134-0.044-0.25-0.134-0.347
				c-0.089-0.097-0.201-0.146-0.335-0.146c-0.119,0-0.197,0.019-0.235,0.056c-0.037,0.037-0.093,0.101-0.167,0.19
				c-0.164,0.224-0.339,0.451-0.525,0.682c-0.187,0.231-0.392,0.439-0.615,0.626s-0.466,0.339-0.727,0.458s-0.548,0.179-0.861,0.179
				c-0.343,0-0.63-0.097-0.861-0.291c-0.231-0.194-0.384-0.462-0.458-0.805c0.328-0.015,0.652-0.101,0.973-0.257
				c0.32-0.157,0.604-0.362,0.85-0.615s0.447-0.537,0.604-0.85c0.156-0.313,0.235-0.641,0.235-0.984
				c0-0.388-0.108-0.708-0.325-0.962c-0.216-0.253-0.518-0.38-0.905-0.38c-0.417,0-0.794,0.115-1.129,0.347
				c-0.335,0.231-0.619,0.521-0.85,0.872c-0.231,0.35-0.406,0.734-0.525,1.151s-0.179,0.813-0.179,1.186
				c0,0.357,0.056,0.704,0.167,1.04s0.272,0.63,0.481,0.883s0.462,0.458,0.76,0.615C82.526-232.938,82.869-232.859,83.256-232.859z
				 M82.295-236.303c-0.06,0-0.149-0.015-0.269-0.045c0.015-0.149,0.056-0.328,0.123-0.537c0.067-0.209,0.153-0.406,0.257-0.593
				c0.104-0.186,0.234-0.343,0.391-0.47c0.157-0.126,0.332-0.19,0.525-0.19c0.104,0,0.183,0.075,0.235,0.224
				s0.078,0.261,0.078,0.335c0,0.149-0.041,0.298-0.123,0.447c-0.082,0.149-0.19,0.287-0.325,0.414
				c-0.134,0.127-0.279,0.228-0.436,0.302C82.597-236.34,82.444-236.303,82.295-236.303z"/>
		</g>
	</g>
</g>
</svg>
