<?xml version="1.0" encoding="utf-8"?>
<!-- Generator: Adobe Illustrator 13.0.0, SVG Export Plug-In . SVG Version: 6.00 Build 14948)  -->
<!DOCTYPE svg PUBLIC "-//W3C//DTD SVG 1.1//EN" "http://www.w3.org/Graphics/SVG/1.1/DTD/svg11.dtd">
<svg version="1.1" id="Layer_1" xmlns="http://www.w3.org/2000/svg" xmlns:xlink="http://www.w3.org/1999/xlink" x="0px" y="0px"
	 width="342px" height="379px" viewBox="0 0 342 379" enable-background="new 0 0 342 379" xml:space="preserve">
<g>
	<path fill="#E74C3C" d="M169.14,180.166v10.833c0,1.278-0.683,2.462-1.791,3.103l-9.382,5.418c-1.108,0.639-2.474,0.639-3.582,0
		l-9.382-5.418c-1.108-0.641-1.791-1.822-1.791-3.103v-10.833c0-1.279,0.683-2.462,1.791-3.102l9.382-5.417
		c1.108-0.64,2.474-0.64,3.582,0l9.382,5.417C168.457,177.704,169.14,178.886,169.14,180.166z"/>
	<path fill="#FFFFFF" d="M153.594,193.436c0.3,0,0.501-0.107,0.601-0.326c0.102-0.217,0.185-0.442,0.25-0.676
		c0.051-0.283,0.147-0.647,0.289-1.09c0.143-0.443,0.313-0.891,0.515-1.343c0.199-0.451,0.422-0.86,0.665-1.228
		c0.241-0.368,0.497-0.61,0.764-0.728c0.15,0.301,0.251,0.661,0.301,1.079s0.129,0.814,0.238,1.19
		c0.109,0.375,0.285,0.692,0.526,0.953c0.242,0.258,0.631,0.389,1.166,0.389c0.301,0,0.631-0.098,0.989-0.288
		c0.359-0.192,0.689-0.438,0.99-0.74c0.301-0.301,0.556-0.627,0.765-0.978s0.314-0.677,0.314-0.978c0-0.15-0.046-0.292-0.138-0.426
		c-0.093-0.134-0.23-0.201-0.414-0.201c-0.2,0-0.368,0.122-0.501,0.364c-0.135,0.242-0.276,0.505-0.428,0.79
		c-0.149,0.284-0.338,0.547-0.563,0.79c-0.226,0.242-0.522,0.363-0.89,0.363c-0.218,0-0.372-0.092-0.465-0.275
		c-0.092-0.183-0.163-0.409-0.213-0.676c-0.05-0.268-0.096-0.563-0.138-0.89c-0.042-0.327-0.108-0.623-0.2-0.89
		s-0.233-0.493-0.426-0.676c-0.192-0.185-0.456-0.276-0.79-0.276c-0.217,0-0.439,0.083-0.665,0.251
		c-0.225,0.167-0.438,0.363-0.639,0.589c-0.2,0.226-0.385,0.459-0.552,0.701c-0.167,0.243-0.301,0.448-0.4,0.614l0.101-1.353
		c0.484-0.501,0.944-1.053,1.378-1.655c0.436-0.602,0.815-1.237,1.142-1.905s0.585-1.358,0.776-2.068
		c0.192-0.711,0.289-1.425,0.289-2.144c0-0.2-0.013-0.417-0.039-0.651c-0.023-0.234-0.083-0.451-0.175-0.651
		c-0.092-0.201-0.218-0.364-0.376-0.489c-0.159-0.125-0.372-0.188-0.64-0.188c-0.519,0-0.969,0.234-1.354,0.702
		c-0.384,0.467-0.714,1.07-0.989,1.805c-0.276,0.735-0.503,1.554-0.678,2.457c-0.176,0.902-0.316,1.784-0.426,2.645
		c-0.108,0.86-0.184,1.654-0.226,2.381s-0.063,1.283-0.063,1.667c0,0.551-0.013,1.095-0.038,1.629
		c-0.024,0.535-0.096,1.07-0.213,1.604c-0.017,0.033-0.024,0.093-0.024,0.176c0,0.184,0.055,0.338,0.163,0.464
		C153.264,193.373,153.41,193.436,153.594,193.436L153.594,193.436z M154.698,185.815c0.051-0.401,0.139-0.927,0.264-1.579
		c0.126-0.652,0.28-1.316,0.464-1.993c0.184-0.676,0.393-1.312,0.626-1.904c0.234-0.594,0.493-1.016,0.777-1.266
		c0.066,0.15,0.108,0.309,0.125,0.476s0.024,0.334,0.024,0.501c0,0.501-0.066,1.011-0.201,1.53
		c-0.134,0.518-0.305,1.027-0.514,1.529c-0.209,0.501-0.452,0.982-0.728,1.441C155.259,185.009,154.982,185.431,154.698,185.815
		L154.698,185.815z M159.877,179.112c0.145,0,0.265-0.058,0.358-0.175c0.095-0.117,0.143-0.244,0.143-0.383
		c0-0.095-0.027-0.185-0.081-0.27c-0.054-0.085-0.134-0.127-0.241-0.127c-0.082,0-0.154,0.022-0.217,0.066
		c-0.063,0.044-0.116,0.099-0.157,0.166c-0.041,0.066-0.07,0.138-0.089,0.217s-0.029,0.153-0.029,0.222
		c0,0.089,0.03,0.158,0.09,0.208C159.715,179.087,159.789,179.112,159.877,179.112z M159.915,181.863
		c0.208,0,0.403-0.066,0.587-0.198c0.068-0.057,0.153-0.134,0.255-0.231c0.101-0.098,0.197-0.205,0.288-0.322
		c0.091-0.117,0.169-0.233,0.23-0.35c0.064-0.116,0.096-0.222,0.096-0.317c0-0.057-0.02-0.103-0.057-0.141
		c-0.039-0.038-0.086-0.057-0.142-0.057c-0.044,0-0.083,0.014-0.119,0.042c-0.034,0.029-0.063,0.059-0.089,0.09
		c-0.038,0.069-0.091,0.161-0.161,0.274c-0.069,0.114-0.146,0.224-0.231,0.331c-0.085,0.107-0.174,0.2-0.269,0.279
		c-0.095,0.079-0.188,0.118-0.284,0.118c-0.057,0-0.103-0.014-0.137-0.042s-0.059-0.063-0.071-0.104
		c-0.012-0.041-0.02-0.086-0.022-0.138c-0.003-0.05-0.005-0.097-0.005-0.141c0-0.101,0.009-0.207,0.027-0.316
		c0.021-0.111,0.04-0.218,0.063-0.322c0.021-0.104,0.042-0.202,0.061-0.293c0.02-0.091,0.028-0.172,0.028-0.241
		c0-0.07-0.021-0.127-0.062-0.175c-0.041-0.047-0.096-0.07-0.166-0.07c-0.106,0-0.19,0.061-0.251,0.184
		c-0.059,0.123-0.104,0.265-0.137,0.425c-0.032,0.161-0.05,0.322-0.057,0.482c-0.006,0.16-0.011,0.279-0.011,0.354
		c0,0.107,0.011,0.213,0.028,0.316c0.02,0.104,0.052,0.198,0.101,0.284c0.047,0.085,0.111,0.153,0.193,0.204
		C159.685,181.838,159.789,181.863,159.915,181.863L159.915,181.863z M162.037,181.665c0.157,0,0.313-0.033,0.468-0.1
		c0.154-0.066,0.301-0.151,0.439-0.255s0.264-0.224,0.374-0.359c0.109-0.136,0.2-0.27,0.27-0.402
		c0.018-0.025,0.028-0.06,0.028-0.104c0-0.057-0.02-0.105-0.058-0.146s-0.085-0.062-0.142-0.062c-0.05,0-0.083,0.008-0.1,0.023
		c-0.016,0.016-0.04,0.043-0.07,0.081c-0.07,0.094-0.145,0.19-0.224,0.288s-0.165,0.186-0.259,0.264
		c-0.095,0.079-0.197,0.144-0.308,0.194c-0.11,0.05-0.232,0.076-0.364,0.076c-0.146,0-0.267-0.041-0.364-0.123
		s-0.162-0.195-0.193-0.34c0.139-0.006,0.275-0.042,0.411-0.109c0.137-0.066,0.257-0.152,0.36-0.26
		c0.104-0.107,0.189-0.227,0.255-0.359c0.066-0.132,0.101-0.271,0.101-0.416c0-0.164-0.046-0.299-0.138-0.407
		c-0.091-0.107-0.22-0.161-0.383-0.161c-0.176,0-0.335,0.049-0.477,0.147c-0.143,0.098-0.263,0.22-0.36,0.369
		c-0.098,0.148-0.172,0.31-0.222,0.487c-0.051,0.176-0.076,0.344-0.076,0.501c0,0.151,0.023,0.297,0.071,0.439
		c0.047,0.142,0.114,0.266,0.204,0.374c0.088,0.107,0.193,0.193,0.32,0.26S161.873,181.665,162.037,181.665z M161.631,180.209
		c-0.025,0-0.063-0.006-0.114-0.019c0.007-0.063,0.024-0.139,0.052-0.227c0.029-0.088,0.065-0.172,0.109-0.25
		c0.044-0.079,0.1-0.146,0.166-0.199c0.065-0.054,0.14-0.08,0.222-0.08c0.044,0,0.078,0.031,0.101,0.094
		c0.021,0.063,0.033,0.11,0.033,0.142c0,0.063-0.019,0.126-0.053,0.189c-0.035,0.063-0.081,0.122-0.137,0.174
		c-0.056,0.054-0.119,0.097-0.184,0.128C161.759,180.193,161.694,180.209,161.631,180.209z"/>
</g>
<text transform="matrix(1 0 0 1 165.5623 206.3418)" fill="#7A7A7A" font-family="'CenturyGothic'" font-size="14.6356">PRO</text>
</svg>
