<?xml version="1.0" encoding="utf-8"?>
<!-- Generator: Adobe Illustrator 13.0.0, SVG Export Plug-In . SVG Version: 6.00 Build 14948)  -->
<!DOCTYPE svg PUBLIC "-//W3C//DTD SVG 1.1//EN" "http://www.w3.org/Graphics/SVG/1.1/DTD/svg11.dtd">
<svg version="1.1" id="Layer_1" xmlns="http://www.w3.org/2000/svg" xmlns:xlink="http://www.w3.org/1999/xlink" x="0px" y="0px"
	 width="40px" height="60px" viewBox="0 0 40 60" enable-background="new 0 0 40 60" xml:space="preserve">
<g>
	<g>
		<path fill="#E74C3C" d="M36.969,16.995v13.787c0,1.626-0.869,3.133-2.279,3.948L22.75,41.626c-1.412,0.813-3.148,0.813-4.56,0
			L6.25,34.73c-1.411-0.815-2.279-2.32-2.279-3.948V16.995c0-1.628,0.869-3.133,2.279-3.948l11.94-6.894
			c1.411-0.815,3.147-0.815,4.56,0l11.939,6.894C36.1,13.862,36.969,15.367,36.969,16.995z"/>
		<path fill="#FFFFFF" d="M17.184,33.882c0.381,0,0.637-0.135,0.764-0.414c0.129-0.276,0.235-0.563,0.318-0.86
			c0.064-0.359,0.188-0.823,0.368-1.387c0.182-0.564,0.399-1.133,0.655-1.709c0.253-0.574,0.536-1.095,0.847-1.562
			c0.307-0.47,0.631-0.777,0.971-0.928c0.191,0.383,0.318,0.842,0.383,1.374c0.063,0.532,0.164,1.035,0.305,1.515
			c0.139,0.477,0.363,0.881,0.67,1.213c0.307,0.327,0.801,0.493,1.482,0.493c0.383,0,0.803-0.123,1.26-0.365
			c0.457-0.244,0.877-0.559,1.26-0.942c0.383-0.383,0.707-0.798,0.975-1.244c0.266-0.448,0.398-0.863,0.398-1.246
			c0-0.192-0.059-0.372-0.174-0.542c-0.119-0.172-0.295-0.256-0.527-0.256c-0.256,0-0.469,0.156-0.639,0.463
			c-0.172,0.307-0.352,0.644-0.543,1.006c-0.191,0.361-0.43,0.696-0.717,1.005c-0.287,0.308-0.666,0.462-1.135,0.462
			c-0.277,0-0.473-0.117-0.59-0.351c-0.117-0.233-0.209-0.52-0.271-0.86c-0.063-0.341-0.121-0.717-0.176-1.133
			c-0.053-0.415-0.137-0.793-0.254-1.132c-0.117-0.34-0.297-0.627-0.543-0.861c-0.244-0.234-0.58-0.351-1.004-0.351
			c-0.277,0-0.561,0.105-0.847,0.319c-0.286,0.212-0.558,0.462-0.813,0.75c-0.254,0.289-0.49,0.584-0.702,0.892
			c-0.212,0.31-0.383,0.571-0.509,0.781l0.128-1.72c0.616-0.639,1.201-1.342,1.754-2.108c0.554-0.766,1.037-1.573,1.453-2.423
			c0.416-0.851,0.744-1.728,0.986-2.633c0.246-0.905,0.369-1.813,0.369-2.728c0-0.255-0.016-0.531-0.051-0.829
			c-0.027-0.298-0.104-0.574-0.221-0.827c-0.117-0.256-0.277-0.464-0.479-0.623c-0.203-0.16-0.475-0.24-0.814-0.24
			c-0.66,0-1.233,0.298-1.724,0.894c-0.488,0.596-0.909,1.362-1.259,2.298c-0.352,0.935-0.641,1.976-0.863,3.127
			c-0.224,1.146-0.402,2.269-0.542,3.365c-0.138,1.094-0.234,2.105-0.287,3.03c-0.054,0.925-0.081,1.633-0.081,2.122
			c0,0.702-0.016,1.394-0.048,2.073c-0.031,0.682-0.122,1.363-0.271,2.041c-0.021,0.044-0.031,0.119-0.031,0.226
			c0,0.233,0.07,0.43,0.207,0.59C16.764,33.803,16.95,33.882,17.184,33.882L17.184,33.882z M18.588,24.184
			c0.065-0.509,0.177-1.178,0.335-2.008c0.161-0.831,0.357-1.676,0.59-2.537c0.234-0.861,0.5-1.669,0.797-2.423
			c0.298-0.756,0.628-1.294,0.988-1.613c0.086,0.192,0.139,0.395,0.16,0.607s0.031,0.425,0.031,0.638
			c0,0.637-0.084,1.286-0.256,1.947c-0.17,0.659-0.387,1.308-0.654,1.946c-0.265,0.637-0.575,1.25-0.925,1.833
			C19.303,23.159,18.95,23.696,18.588,24.184L18.588,24.184z M25.18,15.653c0.186,0,0.338-0.072,0.457-0.221
			c0.121-0.149,0.182-0.311,0.182-0.488c0-0.121-0.035-0.236-0.104-0.343c-0.068-0.109-0.17-0.164-0.307-0.164
			c-0.105,0-0.197,0.03-0.275,0.084c-0.082,0.058-0.148,0.127-0.201,0.211c-0.051,0.085-0.088,0.177-0.113,0.276
			c-0.023,0.102-0.037,0.194-0.037,0.283c0,0.113,0.039,0.201,0.115,0.265C24.975,15.622,25.068,15.653,25.18,15.653z
			 M25.229,19.155c0.266,0,0.514-0.084,0.748-0.252c0.086-0.074,0.195-0.17,0.324-0.294s0.25-0.261,0.367-0.41
			c0.115-0.148,0.215-0.296,0.291-0.445c0.084-0.146,0.123-0.282,0.123-0.402c0-0.072-0.025-0.132-0.072-0.179
			c-0.051-0.05-0.109-0.074-0.18-0.074c-0.057,0-0.105,0.019-0.152,0.054c-0.043,0.037-0.08,0.074-0.113,0.114
			c-0.049,0.087-0.115,0.205-0.205,0.348c-0.088,0.147-0.186,0.286-0.293,0.423c-0.109,0.135-0.223,0.253-0.344,0.355
			c-0.119,0.099-0.238,0.149-0.359,0.149c-0.074,0-0.133-0.018-0.174-0.054c-0.045-0.036-0.076-0.081-0.092-0.133
			c-0.016-0.052-0.025-0.109-0.029-0.174s-0.006-0.125-0.006-0.18c0-0.128,0.012-0.263,0.035-0.401
			c0.025-0.142,0.051-0.279,0.078-0.411c0.027-0.133,0.055-0.258,0.078-0.373c0.023-0.117,0.035-0.219,0.035-0.308
			c0-0.088-0.023-0.162-0.078-0.221c-0.053-0.06-0.121-0.089-0.211-0.089c-0.135,0-0.242,0.077-0.318,0.233
			c-0.074,0.157-0.133,0.338-0.174,0.542c-0.041,0.204-0.064,0.41-0.072,0.612c-0.008,0.204-0.014,0.354-0.014,0.452
			c0,0.135,0.014,0.271,0.035,0.401c0.025,0.134,0.066,0.253,0.127,0.362c0.061,0.108,0.145,0.193,0.246,0.259
			C24.936,19.123,25.068,19.155,25.229,19.155L25.229,19.155z M27.93,18.903c0.201,0,0.398-0.042,0.596-0.128
			c0.195-0.084,0.383-0.191,0.559-0.323c0.176-0.133,0.336-0.286,0.477-0.458c0.139-0.174,0.256-0.343,0.342-0.512
			c0.023-0.032,0.037-0.077,0.037-0.131c0-0.072-0.025-0.134-0.074-0.187c-0.049-0.053-0.107-0.079-0.18-0.079
			c-0.063,0-0.105,0.011-0.125,0.029c-0.021,0.02-0.053,0.055-0.092,0.103c-0.088,0.121-0.184,0.242-0.285,0.367
			c-0.1,0.124-0.209,0.236-0.328,0.335c-0.119,0.102-0.25,0.184-0.391,0.248S28.168,18.264,28,18.264
			c-0.186,0-0.338-0.052-0.463-0.156c-0.125-0.105-0.207-0.248-0.246-0.433c0.176-0.008,0.35-0.053,0.523-0.139
			c0.174-0.083,0.326-0.192,0.459-0.33c0.133-0.136,0.24-0.29,0.324-0.456c0.084-0.169,0.127-0.346,0.127-0.529
			c0-0.209-0.059-0.382-0.176-0.52c-0.115-0.136-0.277-0.204-0.486-0.204c-0.223,0-0.426,0.062-0.605,0.187
			c-0.182,0.124-0.336,0.281-0.459,0.47c-0.125,0.188-0.219,0.395-0.283,0.62c-0.064,0.223-0.096,0.438-0.096,0.637
			c0,0.192,0.029,0.378,0.09,0.559c0.061,0.179,0.146,0.338,0.26,0.475c0.111,0.136,0.246,0.246,0.408,0.331
			C27.539,18.861,27.721,18.903,27.93,18.903z M27.412,17.049c-0.031,0-0.082-0.007-0.145-0.025c0.01-0.079,0.031-0.176,0.066-0.288
			c0.037-0.111,0.082-0.219,0.139-0.318c0.055-0.099,0.127-0.186,0.211-0.253c0.082-0.068,0.178-0.102,0.281-0.102
			c0.057,0,0.1,0.04,0.129,0.119c0.027,0.081,0.043,0.141,0.043,0.182c0,0.079-0.023,0.161-0.068,0.241
			c-0.043,0.08-0.104,0.154-0.174,0.221c-0.07,0.068-0.152,0.124-0.232,0.163C27.576,17.03,27.492,17.049,27.412,17.049z"/>
	</g>
	<g enable-background="new    ">
		<path fill="#FFFFFF" d="M3.763,42.292h2.484c1.425,0,2.386,0.062,2.883,0.187c0.712,0.175,1.295,0.535,1.747,1.08
			c0.452,0.546,0.677,1.231,0.677,2.056c0,0.831-0.219,1.517-0.661,2.057c-0.44,0.54-1.048,0.902-1.823,1.089
			c-0.565,0.136-1.622,0.204-3.17,0.204H5.01v5.799H3.763V42.292z M5.01,43.512v4.231l2.111,0.025c0.853,0,1.478-0.078,1.873-0.233
			c0.396-0.155,0.707-0.406,0.933-0.753c0.226-0.347,0.339-0.734,0.339-1.163c0-0.417-0.113-0.8-0.339-1.147
			c-0.226-0.347-0.523-0.593-0.895-0.739c-0.37-0.146-0.976-0.221-1.818-0.221H5.01z"/>
		<path fill="#FFFFFF" d="M14.115,42.292h2.484c1.385,0,2.323,0.055,2.814,0.169c0.742,0.17,1.342,0.532,1.807,1.091
			c0.463,0.558,0.697,1.244,0.697,2.059c0,0.68-0.162,1.276-0.48,1.791c-0.32,0.516-0.777,0.905-1.37,1.167
			c-0.594,0.264-1.414,0.398-2.459,0.404l4.483,5.79h-1.541l-4.484-5.79h-0.706v5.79h-1.246V42.292z M15.361,43.512v4.239
			l2.149,0.018c0.833,0,1.447-0.079,1.847-0.237c0.4-0.158,0.711-0.411,0.936-0.76c0.223-0.348,0.335-0.736,0.335-1.165
			c0-0.418-0.113-0.799-0.34-1.14c-0.227-0.344-0.523-0.588-0.892-0.733c-0.369-0.147-0.979-0.222-1.834-0.222H15.361z"/>
		<path fill="#FFFFFF" d="M30.523,41.978c1.891,0,3.473,0.63,4.744,1.892c1.273,1.26,1.91,2.812,1.91,4.653
			c0,1.826-0.637,3.375-1.906,4.646s-2.818,1.908-4.645,1.908c-1.85,0-3.412-0.634-4.684-1.899c-1.271-1.267-1.91-2.798-1.91-4.596
			c0-1.198,0.291-2.31,0.871-3.332c0.58-1.023,1.371-1.825,2.371-2.403C28.277,42.268,29.359,41.978,30.523,41.978z M30.58,43.188
			c-0.922,0-1.799,0.242-2.623,0.723c-0.828,0.48-1.475,1.129-1.938,1.943s-0.695,1.722-0.695,2.724
			c0,1.481,0.512,2.733,1.541,3.754c1.027,1.021,2.266,1.532,3.715,1.532c0.969,0,1.865-0.234,2.688-0.706
			c0.824-0.469,1.467-1.11,1.928-1.925c0.461-0.813,0.693-1.719,0.693-2.716c0-0.989-0.232-1.886-0.693-2.685
			c-0.461-0.801-1.111-1.441-1.947-1.922C32.408,43.431,31.52,43.188,30.58,43.188z"/>
	</g>
</g>
</svg>
