<?xml version="1.0" encoding="utf-8"?>
<!-- Generator: Adobe Illustrator 13.0.0, SVG Export Plug-In . SVG Version: 6.00 Build 14948)  -->
<!DOCTYPE svg PUBLIC "-//W3C//DTD SVG 1.1//EN" "http://www.w3.org/Graphics/SVG/1.1/DTD/svg11.dtd">
<svg version="1.1" id="Layer_1" xmlns="http://www.w3.org/2000/svg" xmlns:xlink="http://www.w3.org/1999/xlink" x="0px" y="0px"
	 width="40px" height="60px" viewBox="0 0 40 60" enable-background="new 0 0 40 60" xml:space="preserve">
<g>
	<path fill="#E74C3C" d="M36.023,16.62v13.787c0,1.626-0.868,3.133-2.278,3.948l-11.939,6.896c-1.412,0.813-3.148,0.813-4.561,0
		L5.306,34.355c-1.41-0.815-2.279-2.32-2.279-3.948V16.62c0-1.628,0.869-3.133,2.279-3.948l11.939-6.894
		c1.411-0.815,3.147-0.815,4.561,0l11.939,6.894C35.155,13.487,36.023,14.992,36.023,16.62z"/>
	<path fill="#FFFFFF" d="M16.238,33.507c0.382,0,0.638-0.135,0.765-0.414c0.13-0.276,0.234-0.563,0.318-0.86
		c0.064-0.358,0.188-0.822,0.367-1.387c0.182-0.563,0.398-1.133,0.655-1.708c0.254-0.574,0.535-1.095,0.847-1.562
		c0.307-0.47,0.633-0.777,0.973-0.928c0.19,0.383,0.317,0.842,0.383,1.374c0.063,0.532,0.164,1.035,0.305,1.515
		c0.139,0.477,0.363,0.881,0.67,1.213c0.307,0.327,0.801,0.493,1.482,0.493c0.383,0,0.803-0.123,1.26-0.365
		c0.457-0.244,0.877-0.559,1.26-0.942s0.707-0.798,0.975-1.244c0.267-0.448,0.398-0.863,0.398-1.246
		c0-0.192-0.059-0.372-0.174-0.542c-0.119-0.172-0.295-0.256-0.527-0.256c-0.256,0-0.469,0.156-0.639,0.463
		c-0.172,0.307-0.352,0.644-0.543,1.006c-0.191,0.361-0.43,0.696-0.717,1.005c-0.287,0.308-0.666,0.462-1.135,0.462
		c-0.277,0-0.474-0.117-0.59-0.351c-0.117-0.233-0.209-0.52-0.271-0.86c-0.063-0.341-0.121-0.717-0.176-1.133
		c-0.053-0.415-0.137-0.793-0.254-1.132c-0.117-0.34-0.297-0.627-0.543-0.861c-0.244-0.234-0.58-0.351-1.004-0.351
		c-0.277,0-0.562,0.105-0.848,0.319c-0.286,0.212-0.56,0.462-0.813,0.75c-0.255,0.289-0.49,0.584-0.702,0.892
		c-0.213,0.31-0.383,0.571-0.51,0.781l0.128-1.72c0.616-0.639,1.201-1.342,1.754-2.108c0.556-0.766,1.038-1.573,1.454-2.423
		c0.416-0.851,0.744-1.728,0.985-2.633c0.246-0.905,0.369-1.813,0.369-2.728c0-0.255-0.017-0.531-0.052-0.829
		c-0.026-0.298-0.104-0.574-0.221-0.827c-0.117-0.256-0.276-0.464-0.479-0.623c-0.203-0.16-0.475-0.24-0.814-0.24
		c-0.66,0-1.232,0.298-1.724,0.894c-0.488,0.596-0.909,1.362-1.259,2.298c-0.354,0.935-0.642,1.976-0.863,3.127
		c-0.225,1.146-0.402,2.269-0.542,3.365c-0.138,1.094-0.233,2.105-0.287,3.03c-0.054,0.925-0.081,1.633-0.081,2.122
		c0,0.702-0.016,1.394-0.048,2.073c-0.031,0.683-0.122,1.362-0.271,2.041c-0.021,0.044-0.03,0.119-0.03,0.226
		c0,0.233,0.068,0.43,0.207,0.59C15.818,33.428,16.004,33.507,16.238,33.507L16.238,33.507z M17.643,23.809
		c0.064-0.509,0.177-1.178,0.336-2.008c0.16-0.831,0.355-1.676,0.59-2.537c0.234-0.861,0.5-1.669,0.797-2.423
		c0.3-0.756,0.63-1.294,0.988-1.613c0.086,0.192,0.14,0.395,0.16,0.607s0.03,0.425,0.03,0.638c0,0.637-0.084,1.286-0.256,1.947
		c-0.17,0.659-0.387,1.308-0.653,1.946c-0.267,0.637-0.575,1.25-0.926,1.833C18.357,22.784,18.003,23.321,17.643,23.809
		L17.643,23.809z M24.234,15.278c0.187,0,0.339-0.072,0.457-0.221c0.121-0.149,0.183-0.311,0.183-0.488
		c0-0.121-0.035-0.236-0.104-0.343c-0.067-0.109-0.17-0.164-0.308-0.164c-0.104,0-0.196,0.03-0.274,0.084
		c-0.082,0.058-0.147,0.127-0.2,0.211c-0.052,0.085-0.089,0.177-0.113,0.276c-0.023,0.102-0.037,0.194-0.037,0.283
		c0,0.113,0.039,0.201,0.115,0.265C24.03,15.247,24.122,15.278,24.234,15.278z M24.284,18.78c0.266,0,0.514-0.084,0.748-0.252
		c0.086-0.074,0.194-0.17,0.323-0.294s0.25-0.261,0.367-0.41c0.114-0.148,0.215-0.296,0.291-0.445
		c0.084-0.146,0.123-0.282,0.123-0.402c0-0.072-0.024-0.132-0.072-0.179c-0.051-0.05-0.108-0.074-0.18-0.074
		c-0.058,0-0.104,0.019-0.152,0.054c-0.043,0.037-0.079,0.074-0.112,0.114c-0.049,0.087-0.115,0.205-0.205,0.348
		c-0.088,0.147-0.187,0.286-0.293,0.423c-0.109,0.135-0.224,0.253-0.344,0.355c-0.119,0.099-0.238,0.149-0.359,0.149
		c-0.074,0-0.133-0.018-0.174-0.054c-0.045-0.036-0.076-0.081-0.092-0.133c-0.017-0.052-0.025-0.109-0.029-0.174
		s-0.006-0.125-0.006-0.18c0-0.128,0.012-0.263,0.035-0.401c0.024-0.142,0.051-0.279,0.077-0.411
		c0.027-0.133,0.056-0.258,0.078-0.373c0.022-0.117,0.035-0.219,0.035-0.308c0-0.088-0.022-0.162-0.078-0.221
		c-0.054-0.06-0.121-0.089-0.211-0.089c-0.136,0-0.242,0.077-0.317,0.233c-0.074,0.157-0.134,0.338-0.175,0.542
		s-0.063,0.41-0.071,0.612c-0.009,0.204-0.015,0.354-0.015,0.452c0,0.135,0.015,0.271,0.035,0.401
		c0.024,0.134,0.065,0.253,0.127,0.362c0.062,0.108,0.146,0.193,0.246,0.259C23.991,18.748,24.122,18.78,24.284,18.78L24.284,18.78z
		 M26.984,18.528c0.201,0,0.398-0.042,0.597-0.128c0.194-0.084,0.383-0.191,0.559-0.323c0.176-0.133,0.336-0.286,0.477-0.458
		c0.139-0.174,0.256-0.343,0.342-0.512c0.023-0.032,0.037-0.077,0.037-0.131c0-0.072-0.024-0.134-0.074-0.187
		c-0.049-0.053-0.106-0.079-0.18-0.079c-0.063,0-0.104,0.011-0.125,0.029c-0.021,0.02-0.053,0.055-0.092,0.103
		c-0.088,0.121-0.184,0.242-0.285,0.367c-0.1,0.124-0.209,0.236-0.328,0.335c-0.119,0.102-0.25,0.184-0.391,0.248
		s-0.297,0.097-0.465,0.097c-0.186,0-0.338-0.052-0.463-0.156c-0.125-0.105-0.207-0.248-0.246-0.433
		c0.176-0.008,0.35-0.053,0.523-0.139c0.174-0.083,0.326-0.192,0.459-0.33c0.133-0.136,0.24-0.29,0.324-0.456
		c0.084-0.169,0.127-0.346,0.127-0.529c0-0.209-0.06-0.382-0.177-0.52c-0.114-0.136-0.276-0.204-0.485-0.204
		c-0.224,0-0.427,0.062-0.605,0.187c-0.182,0.124-0.336,0.281-0.459,0.47c-0.125,0.188-0.219,0.395-0.283,0.62
		c-0.064,0.223-0.096,0.438-0.096,0.637c0,0.192,0.029,0.378,0.09,0.559c0.061,0.179,0.146,0.338,0.26,0.475
		c0.111,0.136,0.246,0.246,0.408,0.331C26.594,18.486,26.775,18.528,26.984,18.528z M26.467,16.674
		c-0.031,0-0.082-0.007-0.146-0.025c0.01-0.079,0.031-0.176,0.066-0.288c0.037-0.111,0.082-0.219,0.139-0.318
		c0.055-0.099,0.127-0.186,0.211-0.253c0.082-0.068,0.178-0.102,0.281-0.102c0.057,0,0.1,0.04,0.129,0.119
		c0.027,0.081,0.043,0.141,0.043,0.182c0,0.079-0.023,0.161-0.068,0.241c-0.043,0.08-0.104,0.154-0.174,0.221
		c-0.07,0.068-0.152,0.124-0.231,0.163C26.63,16.655,26.546,16.674,26.467,16.674z"/>
</g>
<g enable-background="new    ">
	<path fill="#FFFFFF" d="M0.505,52.133l0.894-0.535c0.629,1.158,1.355,1.736,2.179,1.736c0.353,0,0.684-0.082,0.994-0.246
		c0.31-0.164,0.545-0.385,0.708-0.662c0.162-0.275,0.243-0.568,0.243-0.879c0-0.352-0.119-0.697-0.357-1.035
		c-0.329-0.467-0.929-1.029-1.801-1.688c-0.876-0.662-1.422-1.141-1.636-1.436c-0.372-0.496-0.558-1.031-0.558-1.609
		c0-0.457,0.11-0.873,0.329-1.25c0.219-0.377,0.527-0.672,0.925-0.889c0.397-0.217,0.83-0.326,1.297-0.326
		c0.496,0,0.959,0.123,1.39,0.369c0.431,0.244,0.887,0.695,1.369,1.354l-0.858,0.65c-0.396-0.523-0.732-0.869-1.011-1.037
		c-0.278-0.166-0.582-0.25-0.911-0.25c-0.424,0-0.771,0.129-1.04,0.387c-0.27,0.258-0.404,0.574-0.404,0.949
		c0,0.23,0.047,0.451,0.143,0.666c0.095,0.215,0.269,0.447,0.521,0.699c0.138,0.135,0.591,0.484,1.358,1.051
		c0.91,0.672,1.534,1.27,1.872,1.795c0.338,0.523,0.507,1.049,0.507,1.578c0,0.764-0.289,1.426-0.868,1.986
		c-0.579,0.563-1.283,0.844-2.112,0.844c-0.638,0-1.217-0.17-1.736-0.51C1.422,53.504,0.943,52.934,0.505,52.133z"/>
	<path fill="#FFFFFF" d="M7.837,44.607V43.58h5.76v1.027h-2.344v9.484h-1.072v-9.484H7.837z"/>
	<path fill="#FFFFFF" d="M19.407,43.58l4.902,10.512h-1.135l-1.653-3.459h-4.529l-1.638,3.459h-1.172L19.15,43.58H19.407z
		 M19.274,45.813l-1.801,3.805h3.593L19.274,45.813z"/>
	<path fill="#FFFFFF" d="M24.895,44.607V43.58h5.76v1.027h-2.344v9.484h-1.072v-9.484H24.895z"/>
	<path fill="#FFFFFF" d="M32.178,43.58h6.023v1.027h-4.973v3.295h4.93v1.029h-4.93v4.131h4.93v1.029h-5.98V43.58z"/>
</g>
</svg>
